<svg aria-hidden="true" width="20" height="20" viewBox="0 0 20 20" xmlns="http://www.w3.org/2000/svg">
<ellipse fill="#FFA800" cx="10" cy="8.7" rx="2" ry="2"/>
<path fill="#FFFFFF" d="M20,8.7h-7c0-1.1-0.5-2.1-1.5-2.6l0.9-1.6l1.4-2.4L15,0c1.5,0.9,2.7,2.1,3.6,3.6C19.9,5.7,20,7.8,20,8.7z"/>
<path fill="#FFFFFF" d="M15,17.4c-0.8,0.5-2.5,1.3-4.9,1.4c-2.5,0-4.3-0.9-5.1-1.3c0.4-0.7,0.8-1.4,1.2-2.1c0.5-0.8,0.9-1.6,1.4-2.4
	c0.3-0.5,0.6-1.1,0.9-1.6c0.9,0.6,2.1,0.6,3,0l0.9,1.6l1.4,2.4L15,17.4z"/>
<path fill="#FFFFFF" d="M8.5,6.1C7.5,6.6,6.9,7.6,7,8.7H0c0-0.9,0.1-2.9,1.4-5.1C2.3,2.1,3.5,0.9,5,0l1.2,2.2l1.4,2.4L8.5,6.1z"/>
<path fill="#FFA800" d="M12.4,1.7l-0.7,0.6c-0.1,0-0.3-0.1-0.4-0.1c-0.1,0-0.3-0.1-0.4-0.1l-0.3-0.9l-1.2,0L9.1,2.1
	c-0.3,0-0.5,0.1-0.8,0.2L7.7,1.7L7.3,1.9l1,1.8c1-0.4,2.4-0.4,3.3,0l1-1.8L12.4,1.7z M2.8,10.1l0.9,0.3c0,0.1,0.1,0.3,0.1,0.4
	c0,0.1,0.1,0.3,0.1,0.4l-0.6,0.7l0.6,1l0.9-0.2c0.2,0.2,0.4,0.4,0.6,0.6l-0.2,0.9l0.4,0.2l1-1.8C5.7,12,5,10.7,4.9,9.7l-2.1,0
	L2.8,10.1z M14.8,14.2l-0.2-0.9c0.1-0.1,0.2-0.2,0.3-0.3c0.1-0.1,0.2-0.2,0.3-0.3l0.9,0.2l0.6-1l-0.6-0.7c0.1-0.3,0.2-0.5,0.2-0.8
	l0.9-0.3l0-0.4l-2.1,0c-0.1,1-0.9,2.3-1.7,2.9l1.1,1.8L14.8,14.2z"/>
</svg>
